<svg xmlns="http://www.w3.org/2000/svg" width="1024" height="1024" viewBox="0 0 1024 1024">
  <defs>
    <radialGradient id="bg" cx="32%" cy="22%" r="95%">
      <stop offset="0" stop-color="#1c2533"/>
      <stop offset="1" stop-color="#0b0d12"/>
    </radialGradient>
  </defs>
  <rect width="1024" height="1024" rx="220" fill="url(#bg)"/>
  <g transform="translate(512,330)">
    <path d="M150 -40 A150 150 0 1 0 30 150" fill="none" stroke="#FF7A1E" stroke-width="34" stroke-linecap="round"/>
  </g>
  <g transform="translate(237,300) scale(5.5)">
    <rect x="8" y="44" width="84" height="15" rx="4" fill="#262b34"/>
    <rect x="70" y="44" width="16" height="15" rx="2" fill="#0b0d10"/>
    <rect x="73" y="46" width="2.3" height="11" rx="1" fill="#FF6A4D"/>
    <rect x="77.6" y="46" width="2.3" height="11" rx="1" fill="#FF6A4D"/>
    <rect x="40" y="56" width="9" height="30" rx="3" fill="#262b34"/>
    <rect x="51" y="56" width="9" height="26" rx="3" fill="#1c2026"/>
    <rect x="36" y="40" width="13" height="22" rx="4" fill="#2b313b" transform="rotate(8 42 51)"/>
    <rect x="51" y="40" width="13" height="22" rx="4" fill="#20242b" transform="rotate(-8 58 51)"/>
    <rect x="41" y="46.5" width="18" height="9" rx="3.5" fill="#323847"/>
  </g>
</svg>
